<svg width="27" height="26" viewBox="0 0 27 26" fill="none" xmlns="http://www.w3.org/2000/svg">
<path d="M0.645752 1.19794C0.645752 0.907857 0.760986 0.629657 0.966104 0.424539C1.17122 0.219421 1.44942 0.104187 1.7395 0.104187H2.55325C3.93867 0.104187 4.76992 1.03606 5.24388 1.90231C5.56034 2.47981 5.78929 3.14919 5.96867 3.75585C6.01719 3.75202 6.06583 3.75008 6.1145 3.75002H24.3408C25.5512 3.75002 26.4262 4.90794 26.0937 6.07315L23.4278 15.4196C23.1888 16.2579 22.6832 16.9956 21.9874 17.5208C21.2917 18.046 20.4437 18.3302 19.572 18.3304H10.8978C10.0192 18.3305 9.16483 18.0419 8.4661 17.5092C7.76737 16.9765 7.26294 16.229 7.03033 15.3817L5.922 11.3392L4.0845 5.14419L4.08304 5.13252C3.85554 4.30565 3.64263 3.53127 3.32471 2.95377C3.01992 2.39231 2.77492 2.29169 2.55471 2.29169H1.7395C1.44942 2.29169 1.17122 2.17645 0.966104 1.97134C0.760986 1.76622 0.645752 1.48802 0.645752 1.19794ZM8.04388 10.8084L9.13909 14.8027C9.35784 15.5931 10.0768 16.1429 10.8978 16.1429H19.572C19.9682 16.1429 20.3537 16.0138 20.67 15.7752C20.9863 15.5365 21.2162 15.2013 21.3249 14.8202L23.858 5.93752H6.60304L8.02346 10.7311L8.04388 10.8084ZM13.0416 22.7084C13.0416 23.4819 12.7343 24.2238 12.1873 24.7707C11.6403 25.3177 10.8985 25.625 10.1249 25.625C9.35137 25.625 8.60951 25.3177 8.06252 24.7707C7.51554 24.2238 7.20825 23.4819 7.20825 22.7084C7.20825 21.9348 7.51554 21.1929 8.06252 20.646C8.60951 20.099 9.35137 19.7917 10.1249 19.7917C10.8985 19.7917 11.6403 20.099 12.1873 20.646C12.7343 21.1929 13.0416 21.9348 13.0416 22.7084ZM10.8541 22.7084C10.8541 22.515 10.7773 22.3295 10.6405 22.1928C10.5038 22.056 10.3183 21.9792 10.1249 21.9792C9.93153 21.9792 9.74607 22.056 9.60932 22.1928C9.47257 22.3295 9.39575 22.515 9.39575 22.7084C9.39575 22.9017 9.47257 23.0872 9.60932 23.224C9.74607 23.3607 9.93153 23.4375 10.1249 23.4375C10.3183 23.4375 10.5038 23.3607 10.6405 23.224C10.7773 23.0872 10.8541 22.9017 10.8541 22.7084ZM23.2499 22.7084C23.2499 23.4819 22.9426 24.2238 22.3956 24.7707C21.8487 25.3177 21.1068 25.625 20.3333 25.625C19.5597 25.625 18.8178 25.3177 18.2709 24.7707C17.7239 24.2238 17.4166 23.4819 17.4166 22.7084C17.4166 21.9348 17.7239 21.1929 18.2709 20.646C18.8178 20.099 19.5597 19.7917 20.3333 19.7917C21.1068 19.7917 21.8487 20.099 22.3956 20.646C22.9426 21.1929 23.2499 21.9348 23.2499 22.7084ZM21.0624 22.7084C21.0624 22.515 20.9856 22.3295 20.8489 22.1928C20.7121 22.056 20.5266 21.9792 20.3333 21.9792C20.1399 21.9792 19.9544 22.056 19.8177 22.1928C19.6809 22.3295 19.6041 22.515 19.6041 22.7084C19.6041 22.9017 19.6809 23.0872 19.8177 23.224C19.9544 23.3607 20.1399 23.4375 20.3333 23.4375C20.5266 23.4375 20.7121 23.3607 20.8489 23.224C20.9856 23.0872 21.0624 22.9017 21.0624 22.7084Z" fill="#333333"/>
</svg>
