<svg width="1055" height="869" viewBox="0 0 1055 869" fill="none" xmlns="http://www.w3.org/2000/svg">
    <path d="M603.423 848.281C602.505 848.281 601.586 848.091 600.762 847.718L154.743 642.81C153.478 642.232 152.587 641.266 152.278 640.147C151.969 639.027 152.269 637.863 153.112 636.927L512.346 238.239C514.013 236.388 517.284 235.941 519.654 237.244C522.025 238.546 522.597 241.1 520.929 242.952L164.982 638.005L598.647 837.236L612.73 633.696C612.89 631.435 615.326 629.723 618.249 629.825C621.145 629.95 623.356 631.882 623.206 634.135L608.655 844.401C608.551 845.828 607.511 847.116 605.891 847.789C605.122 848.118 604.269 848.279 603.417 848.279L603.423 848.281ZM622.228 576.645C622.135 576.645 622.041 576.645 621.938 576.638C619.043 576.513 616.831 574.581 616.981 572.327L649.664 100.111L566.224 192.711C564.556 194.562 561.286 195.008 558.916 193.706C556.545 192.403 555.973 189.849 557.641 187.998L651.604 83.7268C652.953 82.234 655.399 81.612 657.61 82.2121C659.822 82.8121 661.255 84.4805 661.134 86.3027L627.458 572.776C627.308 574.957 624.994 576.647 622.229 576.647L622.228 576.645Z"
          fill="#333333" fill-opacity="0.3"/>
    <path d="M1023.2 643.374H729.045C726.15 643.374 723.798 641.537 723.798 639.276C723.798 637.015 726.15 635.178 729.045 635.178H1014.93L810.621 296.119L226.051 469.289C223.334 470.094 220.308 469.025 219.286 466.91C218.256 464.796 219.624 462.425 222.332 461.627L811.459 287.113C814.017 286.359 816.893 287.259 818.065 289.198L1027.95 637.53C1028.72 638.796 1028.6 640.289 1027.63 641.474C1026.68 642.66 1025.01 643.377 1023.21 643.377L1023.2 643.374ZM650.343 643.374H157.405C155.653 643.374 154.013 642.686 153.038 641.552L48.0941 518.613C47.2039 517.574 46.9791 516.278 47.4663 515.086C47.9535 513.9 49.106 512.949 50.6052 512.503L148.747 483.428C151.464 482.623 154.49 483.691 155.512 485.806C156.543 487.921 155.175 490.292 152.467 491.09L60.4803 518.334L160.215 635.177H650.346C653.242 635.177 655.594 637.014 655.594 639.275C655.584 641.536 653.232 643.373 650.337 643.373L650.343 643.374Z"
          fill="#333333" fill-opacity="0.3"/>
    <path d="M52.46 520.444C51.2232 520.444 49.9958 520.1 49.0212 519.442C47.5595 518.461 46.9129 516.924 47.3346 515.453L152.279 146.627C152.588 145.529 153.469 144.578 154.706 144C155.943 143.422 157.432 143.268 158.81 143.568L396.715 195.591C399.508 196.199 401.138 198.46 400.351 200.641C399.573 202.821 396.668 204.095 393.886 203.48L161.312 152.622L59.6758 509.796L334.186 428.481C336.894 427.676 339.93 428.745 340.951 430.859C341.982 432.974 340.614 435.345 337.906 436.143L54.3286 520.167C53.7195 520.342 53.0918 520.43 52.464 520.43L52.46 520.444ZM409.654 414.637C407.537 414.637 405.541 413.627 404.744 411.995C403.714 409.88 405.082 407.509 407.79 406.712L796.527 291.551L469.701 220.079C466.908 219.471 465.278 217.21 466.065 215.029C466.843 212.849 469.738 211.575 472.531 212.19L814.733 287.021C816.916 287.497 818.462 289.012 818.565 290.783C818.668 292.554 817.3 294.171 815.182 294.8L411.525 414.38C410.897 414.549 410.26 414.636 409.651 414.636L409.654 414.637Z"
          fill="#333333" fill-opacity="0.3"/>
    <path d="M996.959 868.776C965.128 868.776 939.241 848.557 939.241 823.699C939.241 798.842 965.13 778.622 996.959 778.622C1028.79 778.622 1054.68 798.842 1054.68 823.699C1054.68 848.557 1028.79 868.776 996.959 868.776ZM996.959 786.816C970.921 786.816 949.733 803.362 949.733 823.699C949.733 844.036 970.919 860.582 996.959 860.582C1023 860.582 1044.19 844.036 1044.19 823.699C1044.19 803.362 1023 786.816 996.959 786.816Z"
          fill="#333333" fill-opacity="0.3"/>
    <path d="M367.293 90.1533C335.462 90.1533 309.575 69.9341 309.575 45.0766C309.575 20.219 335.465 -0.00012207 367.293 -0.00012207C399.122 -0.00012207 425.012 20.219 425.012 45.0766C425.012 69.9341 399.122 90.1533 367.293 90.1533ZM367.293 8.19394C341.255 8.19394 320.067 24.7394 320.067 45.0766C320.067 65.4137 341.253 81.9592 367.293 81.9592C393.334 81.9592 414.519 65.4137 414.519 45.0766C414.519 24.7394 393.334 8.19394 367.293 8.19394Z"
          fill="#333333" fill-opacity="0.3"/>
    <path d="M865.773 581.909C864.386 581.909 863.046 581.456 862.043 580.702C861.069 579.941 860.525 578.88 860.525 577.811C860.525 576.721 861.078 575.66 862.043 574.899C864.011 573.384 867.525 573.384 869.464 574.899C870.458 575.675 871.011 576.721 871.011 577.811C871.011 578.88 870.458 579.941 869.464 580.702C868.499 581.456 867.159 581.909 865.773 581.909Z"
          fill="#333333" fill-opacity="0.3"/>
    <path d="M787.07 581.909C785.684 581.909 784.344 581.456 783.369 580.702C782.376 579.941 781.823 578.88 781.823 577.811C781.823 576.721 782.376 575.66 783.369 574.899C785.281 573.384 788.822 573.384 790.771 574.899C791.765 575.675 792.317 576.721 792.317 577.811C792.317 578.88 791.765 579.941 790.799 580.702C789.797 581.456 788.457 581.909 787.07 581.909H787.07Z"
          fill="#333333" fill-opacity="0.3"/>
    <path d="M708.367 581.909C706.98 581.909 705.64 581.456 704.638 580.702C703.663 579.941 703.12 578.88 703.12 577.811C703.12 576.721 703.673 575.682 704.638 574.899C706.606 573.384 710.119 573.384 712.059 574.899C713.052 575.675 713.605 576.721 713.605 577.811C713.605 578.88 713.052 579.941 712.087 580.702C711.094 581.456 709.754 581.909 708.367 581.909H708.367Z"
          fill="#333333" fill-opacity="0.3"/>
    <path d="M708.367 520.444C706.999 520.444 705.64 519.99 704.638 519.237C703.663 518.476 703.12 517.414 703.12 516.346C703.12 515.256 703.673 514.217 704.638 513.434C706.606 511.919 710.119 511.919 712.059 513.434C713.052 514.209 713.605 515.256 713.605 516.346C713.605 517.414 713.052 518.475 712.059 519.237C711.094 519.99 709.735 520.444 708.367 520.444Z"
          fill="#333333" fill-opacity="0.3"/>
    <path d="M708.367 458.979C706.98 458.979 705.641 458.526 704.666 457.772C703.673 457.011 703.12 455.95 703.12 454.881C703.12 453.791 703.673 452.752 704.638 451.969C706.606 450.454 710.119 450.454 712.059 451.969C713.052 452.744 713.605 453.791 713.605 454.881C713.605 455.95 713.052 457.011 712.087 457.772C711.094 458.526 709.754 458.979 708.367 458.979Z"
          fill="#333333" fill-opacity="0.3"/>
    <path d="M0 803.208H52.4721V844.188H0V803.208Z" fill="#333333" fill-opacity="0.3"/>
    <path d="M78.7024 803.208H131.175V844.188H78.7024V803.208Z" fill="#333333" fill-opacity="0.3"/>
    <path d="M157.405 803.208H209.877V844.188H157.405V803.208Z" fill="#333333" fill-opacity="0.3"/>
    <path d="M236.107 803.208H288.579V844.188H236.107V803.208Z" fill="#333333" fill-opacity="0.3"/>
</svg>
